<?xml version="1.0" standalone="no"?>
<svg xmlns="http://www.w3.org/2000/svg" width="24" height="24"><rect width="24" height="24" opacity="0"></rect><g><path d="M2.88 15.84L13.66 15.84L13.66 8.16L2.88 8.16Z" fill="rgba(0,0,0,0.9019607843137255)"></path><path d="M22.46 9.02Q22.08 9.02 21.79 9.29Q21.5 9.55 21.5 10.01L21.5 13.99Q21.5 14.45 21.79 14.71Q22.08 14.98 22.49 14.98Q22.9 14.98 23.2 14.72Q23.5 14.47 23.5 13.99L23.5 10.01Q23.5 9.53 23.18 9.26Q22.87 9 22.46 9.02ZM17.78 7.25Q18.22 7.25 18.5 7.55Q18.79 7.85 18.79 8.26L18.79 15.74Q18.79 16.15 18.5 16.45Q18.22 16.75 17.78 16.75L3 16.75Q2.59 16.75 2.29 16.45Q1.99 16.15 1.99 15.74L1.99 8.26Q1.99 7.85 2.29 7.55Q2.59 7.25 3 7.25L17.78 7.25ZM3 5.76Q2.3 5.76 1.74 6.1Q1.18 6.43 0.84 7Q0.5 7.56 0.5 8.26L0.5 15.74Q0.5 16.42 0.84 16.99Q1.18 17.57 1.75 17.9Q2.33 18.24 3 18.24L17.78 18.24Q18.46 18.24 19.03 17.9Q19.61 17.57 19.94 16.99Q20.28 16.42 20.28 15.74L20.28 8.26Q20.28 7.56 19.94 7Q19.61 6.43 19.04 6.1Q18.48 5.76 17.78 5.76L3 5.76Z" fill="rgba(0,0,0,0.9019607843137255)"></path></g></svg>